<svg id="Grupo_11" data-name="Grupo 11" xmlns="http://www.w3.org/2000/svg" xmlns:xlink="http://www.w3.org/1999/xlink" width="19.58" height="25.89" viewBox="0 0 19.58 25.89">
  <defs>
    <clipPath id="clip-path">
      <rect id="Retângulo_31" data-name="Retângulo 31" width="19.58" height="25.89" fill="none"/>
    </clipPath>
  </defs>
  <g id="Grupo_8" data-name="Grupo 8" transform="translate(0 0)" clip-path="url(#clip-path)">
    <path id="Caminho_6" data-name="Caminho 6" d="M17.217,16.737a24.527,24.527,0,0,0,.664-7.747c-.047-.332-.1-.653-.153-.962a6.766,6.766,0,0,0-.088-.764A10.723,10.723,0,0,0,16.8,4.579a6.384,6.384,0,0,0-2.5-3.185A6.744,6.744,0,0,0,10.145,0,7.4,7.4,0,0,0,7.861.361a5.514,5.514,0,0,0-3.58,2.326,7.288,7.288,0,0,0-.848,1.619,7.039,7.039,0,0,0-.5,1.533c-.328,1.233-.569,2.613-.816,4.032A32.391,32.391,0,0,1,.459,16.608a.187.187,0,0,0,.03.19.189.189,0,0,0,.182.067,3.793,3.793,0,0,0,2.123-.942A4.853,4.853,0,0,1,.726,17.876a.19.19,0,0,0-.1.156.185.185,0,0,0,.082.168,7.942,7.942,0,0,0,.82.458A17.659,17.659,0,0,0,0,25.648l0,.242H19.581l-.011-.256c-.183-4.464-1.287-7.235-2.353-8.9m-2.357.316c-.115.142-2.4,1.611-2.4,1.611l1.122,1.51-3.556,2.756.007.012-.012-.008-.012.008.007-.012L6.464,20.174l1.124-1.51S5.3,17.2,5.189,17.053c-.2-.251,1.02-1.409,1.02-1.409l3.816,7.275,3.815-7.275s1.224,1.157,1.02,1.409" transform="translate(0 0)" fill="#fcf0e6"/>
    <path id="Caminho_7" data-name="Caminho 7" d="M26,59.493l0,0,0,0,0-.01Z" transform="translate(-15.984 -36.564)" fill="#fcf0e6"/>
  </g>
</svg>
